<svg xmlns="http://www.w3.org/2000/svg" viewBox="0 0 1000 1000" role="img" aria-label="RD Elite Ten — Mono White (Single-Color invers)">
  <title>RD Elite Ten — Mono White (Single-Color invers)</title>
  <desc>RD Elite Ten / Dominik Robotka e.U. — Glyphen vektorisiert aus DR_Logo_darkgrey.psd via potrace (S104a, 2026-05-09). Apple SD Gothic Neo ist proprietär — TTF nicht einbettbar; vektorisierte Glyphen sind Marken-Bestandteil.</desc>
  <g transform="translate(0 0) scale(0.325627) translate(363.5 362.5) translate(0 1178.0) scale(1 -1)" fill="#FFFFFF"><path d="M4 589 l0 -584 88 0 88 0 0 243 0 243 99 0 99 0 137 -243 136 -242 98 -1 98 0 -1 2 c-1 1 -68 118 -149 259 -142 247 -148 257 -148 262 l1 4 12 5 c31 13 65 31 88 48 68 49 104 113 115 202 1 11 1 22 1 49 1 36 0 47 -5 74 -23 146 -120 233 -288 256 -43 7 -30 6 -259 7 l-210 0 0 -584z m383 440 c70 -5 116 -21 148 -53 28 -28 43 -65 47 -119 4 -55 -4 -107 -22 -143 -11 -21 -30 -43 -49 -56 -31 -20 -69 -32 -120 -36 -7 -1 -57 -1 -112 -1 l-99 0 0 205 0 204 96 0 c56 0 102 0 111 -1z"></path></g><rect x="458.808" y="119.668" width="57.310" height="760.664" fill="#FFFFFF"></rect><g transform="translate(0 0) scale(0.325627) translate(1779.5 1530.5) translate(0 1178.0) scale(1 -1)" fill="#FFFFFF"><path d="M4 589 l0 -584 201 0 c124 0 208 0 219 1 115 7 209 34 285 84 123 79 194 215 211 403 3 38 4 66 4 126 -1 56 -1 66 -5 98 -15 154 -72 271 -169 347 -74 59 -174 95 -292 105 -37 4 -53 4 -253 4 l-201 0 0 -584z m405 436 c93 -8 153 -27 203 -65 43 -33 75 -79 95 -138 16 -47 24 -98 27 -167 1 -32 1 -128 -1 -152 -9 -125 -39 -208 -95 -265 -14 -15 -24 -22 -40 -33 -45 -30 -102 -46 -176 -52 -12 -1 -47 -1 -129 -1 l-112 0 -1 437 0 438 108 0 c65 -1 114 -1 121 -2z"></path></g>
</svg>